# xmcd
#
# Track frame offsets: 
#        150
#        21600
#        37320
#        60082
#        78510
#        98842
#        117722
#        140597
#        159820
#        180947
#        198610
#        251467
#
# Disc length: 3414 seconds
#
# Revision: 2
# Processed by: cddbd v1.5.1PL0 Copyright (c) Steve Scherf et al.
# Submitted via: ExactAudioCopy v0.95a5
#
DISCID=a10d540c
DTITLE=Trapt - Trapt
DYEAR=2002
DGENRE=Rock
TTITLE0=Headstrong
TTITLE1=Made of Glass
TTITLE2=Hollowman
TTITLE3=These Walls
TTITLE4=Still Frame
TTITLE5=Echo
TTITLE6=The Game
TTITLE7=When All is Said and Done
TTITLE8=Enigma
TTITLE9=Stories
TTITLE10=New Beginning
TTITLE11=Enhanced Section
EXTD=YEAR: 2002
EXTT0=
EXTT1=
EXTT2=
EXTT3=
EXTT4=
EXTT5=
EXTT6=
EXTT7=
EXTT8=
EXTT9=
EXTT10=
EXTT11=
PLAYORDER=
